<mxfile host="app.diagrams.net" modified="2023-10-24T18:58:14.090Z" agent="Mozilla/5.0 (Windows NT 10.0; Win64; x64) AppleWebKit/537.36 (KHTML, like Gecko) Chrome/118.0.0.0 Safari/537.36" etag="xya4WZQGGPBnPJ3CrxX4" version="22.0.7" type="device">
  <diagram name="Page-1" id="BGhJjjFUUcMOa9YEFr7n">
    <mxGraphModel dx="1318" dy="574" grid="1" gridSize="10" guides="1" tooltips="1" connect="1" arrows="1" fold="1" page="1" pageScale="1" pageWidth="3300" pageHeight="4681" math="0" shadow="0">
      <root>
        <mxCell id="0" />
        <mxCell id="1" parent="0" />
        <mxCell id="6wJppxcaaT_Gy_mOasJ4-1" value="" style="group" vertex="1" connectable="0" parent="1">
          <mxGeometry x="1400" y="800" width="160" height="280" as="geometry" />
        </mxCell>
        <mxCell id="6wJppxcaaT_Gy_mOasJ4-2" value="&lt;font style=&quot;font-size: 16px;&quot;&gt;Registered User&lt;/font&gt;" style="rounded=0;whiteSpace=wrap;html=1;" vertex="1" parent="6wJppxcaaT_Gy_mOasJ4-1">
          <mxGeometry width="160" height="40" as="geometry" />
        </mxCell>
        <mxCell id="6wJppxcaaT_Gy_mOasJ4-3" value="" style="rounded=0;whiteSpace=wrap;html=1;" vertex="1" parent="6wJppxcaaT_Gy_mOasJ4-1">
          <mxGeometry y="40" width="160" height="150" as="geometry" />
        </mxCell>
        <mxCell id="6wJppxcaaT_Gy_mOasJ4-4" value="&lt;font style=&quot;font-size: 14px;&quot;&gt;&amp;nbsp;-userID : String&lt;br&gt;&amp;nbsp;-username&amp;nbsp; : String&lt;br&gt;&amp;nbsp;-name : String&lt;br&gt;&amp;nbsp;-DOB : String&lt;br&gt;&amp;nbsp;-address : String&lt;br&gt;&amp;nbsp;-contactNo : String&lt;br&gt;&amp;nbsp;-email : String&lt;br&gt;&lt;/font&gt;" style="text;html=1;strokeColor=none;fillColor=none;align=left;verticalAlign=middle;whiteSpace=wrap;rounded=0;" vertex="1" parent="6wJppxcaaT_Gy_mOasJ4-1">
          <mxGeometry y="50" width="130" height="120" as="geometry" />
        </mxCell>
        <mxCell id="6wJppxcaaT_Gy_mOasJ4-5" value="&lt;div style=&quot;text-align: left;&quot;&gt;&lt;br&gt;&lt;/div&gt;" style="rounded=0;whiteSpace=wrap;html=1;" vertex="1" parent="6wJppxcaaT_Gy_mOasJ4-1">
          <mxGeometry y="190" width="160" height="90" as="geometry" />
        </mxCell>
        <mxCell id="6wJppxcaaT_Gy_mOasJ4-6" value="&lt;div style=&quot;border-color: var(--border-color); font-size: 14px;&quot;&gt;+makeApp()&lt;/div&gt;&lt;div style=&quot;border-color: var(--border-color); font-size: 14px;&quot;&gt;+viewTestRes()&lt;/div&gt;&lt;div style=&quot;border-color: var(--border-color); font-size: 14px;&quot;&gt;+viewMedHistory()&lt;/div&gt;&lt;div style=&quot;border-color: var(--border-color); font-size: 14px;&quot;&gt;+addFeedback()&lt;/div&gt;" style="text;html=1;strokeColor=none;fillColor=none;align=left;verticalAlign=middle;whiteSpace=wrap;rounded=0;" vertex="1" parent="6wJppxcaaT_Gy_mOasJ4-1">
          <mxGeometry y="190" width="120" height="80" as="geometry" />
        </mxCell>
        <mxCell id="6wJppxcaaT_Gy_mOasJ4-20" value="" style="group" vertex="1" connectable="0" parent="1">
          <mxGeometry x="1400" y="480" width="160" height="160" as="geometry" />
        </mxCell>
        <mxCell id="6wJppxcaaT_Gy_mOasJ4-21" value="" style="rounded=0;whiteSpace=wrap;html=1;" vertex="1" parent="6wJppxcaaT_Gy_mOasJ4-20">
          <mxGeometry y="40" width="160" height="60" as="geometry" />
        </mxCell>
        <mxCell id="6wJppxcaaT_Gy_mOasJ4-22" value="&lt;font style=&quot;font-size: 16px;&quot;&gt;User&lt;/font&gt;" style="rounded=0;whiteSpace=wrap;html=1;" vertex="1" parent="6wJppxcaaT_Gy_mOasJ4-20">
          <mxGeometry width="160" height="40" as="geometry" />
        </mxCell>
        <mxCell id="6wJppxcaaT_Gy_mOasJ4-23" value="&lt;font style=&quot;font-size: 14px;&quot;&gt;&amp;nbsp;#username : String&lt;br&gt;&amp;nbsp;#password&amp;nbsp; : String&lt;/font&gt;" style="text;html=1;strokeColor=none;fillColor=none;align=left;verticalAlign=middle;whiteSpace=wrap;rounded=0;" vertex="1" parent="6wJppxcaaT_Gy_mOasJ4-20">
          <mxGeometry y="50" width="130" height="30" as="geometry" />
        </mxCell>
        <mxCell id="6wJppxcaaT_Gy_mOasJ4-24" value="&lt;div style=&quot;text-align: left;&quot;&gt;&lt;br&gt;&lt;/div&gt;" style="rounded=0;whiteSpace=wrap;html=1;" vertex="1" parent="6wJppxcaaT_Gy_mOasJ4-20">
          <mxGeometry y="100" width="160" height="60" as="geometry" />
        </mxCell>
        <mxCell id="6wJppxcaaT_Gy_mOasJ4-25" value="&lt;div style=&quot;border-color: var(--border-color); font-size: 14px;&quot;&gt;&lt;font style=&quot;font-size: 14px;&quot;&gt;+login()&lt;/font&gt;&lt;/div&gt;&lt;div style=&quot;border-color: var(--border-color); font-size: 14px;&quot;&gt;&lt;span style=&quot;border-color: var(--border-color); background-color: initial;&quot;&gt;&lt;font style=&quot;font-size: 14px;&quot;&gt;+validateUser()&lt;/font&gt;&lt;/span&gt;&lt;/div&gt;" style="text;html=1;strokeColor=none;fillColor=none;align=left;verticalAlign=middle;whiteSpace=wrap;rounded=0;" vertex="1" parent="6wJppxcaaT_Gy_mOasJ4-20">
          <mxGeometry y="110" width="100" height="30" as="geometry" />
        </mxCell>
        <mxCell id="6wJppxcaaT_Gy_mOasJ4-32" value="" style="group" vertex="1" connectable="0" parent="1">
          <mxGeometry x="1465" y="640" width="30" height="20" as="geometry" />
        </mxCell>
        <mxCell id="6wJppxcaaT_Gy_mOasJ4-28" value="" style="verticalLabelPosition=bottom;verticalAlign=top;html=1;shape=mxgraph.basic.acute_triangle;dx=0.47;" vertex="1" parent="6wJppxcaaT_Gy_mOasJ4-32">
          <mxGeometry width="30" height="20" as="geometry" />
        </mxCell>
        <mxCell id="6wJppxcaaT_Gy_mOasJ4-29" value="" style="endArrow=none;html=1;rounded=0;entryX=0.5;entryY=1;entryDx=0;entryDy=0;entryPerimeter=0;exitX=0.5;exitY=0;exitDx=0;exitDy=0;" edge="1" parent="6wJppxcaaT_Gy_mOasJ4-32" source="6wJppxcaaT_Gy_mOasJ4-2" target="6wJppxcaaT_Gy_mOasJ4-28">
          <mxGeometry width="50" height="50" relative="1" as="geometry">
            <mxPoint x="-75" y="130" as="sourcePoint" />
            <mxPoint x="45" y="30" as="targetPoint" />
          </mxGeometry>
        </mxCell>
        <mxCell id="6wJppxcaaT_Gy_mOasJ4-33" value="&lt;font style=&quot;font-size: 14px;&quot;&gt;Feedback&lt;/font&gt;" style="rounded=0;whiteSpace=wrap;html=1;" vertex="1" parent="1">
          <mxGeometry x="1080" y="890" width="160" height="40" as="geometry" />
        </mxCell>
        <mxCell id="6wJppxcaaT_Gy_mOasJ4-34" value="-feedID : String&lt;br&gt;-Username : String&lt;br&gt;- Rate : Integer&lt;br&gt;-Discription : String" style="rounded=0;whiteSpace=wrap;html=1;align=left;" vertex="1" parent="1">
          <mxGeometry x="1080" y="930" width="160" height="80" as="geometry" />
        </mxCell>
        <mxCell id="6wJppxcaaT_Gy_mOasJ4-35" value="+showFeed()&lt;br&gt;" style="rounded=0;whiteSpace=wrap;html=1;align=left;" vertex="1" parent="1">
          <mxGeometry x="1080" y="1000" width="160" height="40" as="geometry" />
        </mxCell>
        <mxCell id="6wJppxcaaT_Gy_mOasJ4-36" value="" style="endArrow=diamondThin;endFill=1;endSize=24;html=1;rounded=0;exitX=1;exitY=0.5;exitDx=0;exitDy=0;" edge="1" parent="1" source="6wJppxcaaT_Gy_mOasJ4-34">
          <mxGeometry width="160" relative="1" as="geometry">
            <mxPoint x="1210" y="960" as="sourcePoint" />
            <mxPoint x="1400" y="970" as="targetPoint" />
          </mxGeometry>
        </mxCell>
        <mxCell id="6wJppxcaaT_Gy_mOasJ4-37" value="&lt;font style=&quot;font-size: 14px;&quot;&gt;Appointment&lt;/font&gt;" style="rounded=0;whiteSpace=wrap;html=1;" vertex="1" parent="1">
          <mxGeometry x="1730" y="870" width="160" height="40" as="geometry" />
        </mxCell>
        <mxCell id="6wJppxcaaT_Gy_mOasJ4-38" value="-appID : String&lt;br&gt;-appDate : String&lt;br&gt;" style="rounded=0;whiteSpace=wrap;html=1;align=left;" vertex="1" parent="1">
          <mxGeometry x="1730" y="910" width="160" height="80" as="geometry" />
        </mxCell>
        <mxCell id="6wJppxcaaT_Gy_mOasJ4-39" value="+ShowDocDetails ()" style="rounded=0;whiteSpace=wrap;html=1;align=left;" vertex="1" parent="1">
          <mxGeometry x="1730" y="990" width="160" height="40" as="geometry" />
        </mxCell>
        <mxCell id="6wJppxcaaT_Gy_mOasJ4-40" value="" style="endArrow=diamondThin;endFill=1;endSize=24;html=1;rounded=0;exitX=0;exitY=0.5;exitDx=0;exitDy=0;entryX=1;entryY=0.75;entryDx=0;entryDy=0;" edge="1" parent="1" source="6wJppxcaaT_Gy_mOasJ4-38" target="6wJppxcaaT_Gy_mOasJ4-3">
          <mxGeometry width="160" relative="1" as="geometry">
            <mxPoint x="1730" y="1150" as="sourcePoint" />
            <mxPoint x="1550" y="950" as="targetPoint" />
          </mxGeometry>
        </mxCell>
        <mxCell id="6wJppxcaaT_Gy_mOasJ4-41" value="" style="group" vertex="1" connectable="0" parent="1">
          <mxGeometry x="940" y="560" width="160" height="160" as="geometry" />
        </mxCell>
        <mxCell id="6wJppxcaaT_Gy_mOasJ4-42" value="Customer Support" style="rounded=0;whiteSpace=wrap;html=1;" vertex="1" parent="6wJppxcaaT_Gy_mOasJ4-41">
          <mxGeometry width="160" height="40" as="geometry" />
        </mxCell>
        <mxCell id="6wJppxcaaT_Gy_mOasJ4-43" value="-cusSup_ID : String" style="rounded=0;whiteSpace=wrap;html=1;align=left;" vertex="1" parent="6wJppxcaaT_Gy_mOasJ4-41">
          <mxGeometry y="40" width="160" height="40" as="geometry" />
        </mxCell>
        <mxCell id="6wJppxcaaT_Gy_mOasJ4-44" value="+ScheduleApp()&lt;br&gt;+manageUser()&lt;br&gt;+manageFeed()" style="rounded=0;whiteSpace=wrap;html=1;align=left;" vertex="1" parent="6wJppxcaaT_Gy_mOasJ4-41">
          <mxGeometry y="80" width="160" height="80" as="geometry" />
        </mxCell>
        <mxCell id="6wJppxcaaT_Gy_mOasJ4-45" value="" style="endArrow=none;html=1;rounded=0;exitX=0;exitY=0.5;exitDx=0;exitDy=0;entryX=0.5;entryY=1;entryDx=0;entryDy=0;" edge="1" parent="1" source="6wJppxcaaT_Gy_mOasJ4-34" target="6wJppxcaaT_Gy_mOasJ4-44">
          <mxGeometry width="50" height="50" relative="1" as="geometry">
            <mxPoint x="950" y="930" as="sourcePoint" />
            <mxPoint x="1020" y="730" as="targetPoint" />
            <Array as="points">
              <mxPoint x="1020" y="970" />
            </Array>
          </mxGeometry>
        </mxCell>
        <mxCell id="6wJppxcaaT_Gy_mOasJ4-49" value="" style="endArrow=none;html=1;rounded=0;exitX=0.5;exitY=0;exitDx=0;exitDy=0;entryX=0.471;entryY=0.889;entryDx=0;entryDy=0;entryPerimeter=0;" edge="1" parent="1" source="6wJppxcaaT_Gy_mOasJ4-42" target="6wJppxcaaT_Gy_mOasJ4-50">
          <mxGeometry width="50" height="50" relative="1" as="geometry">
            <mxPoint x="1030" y="490" as="sourcePoint" />
            <mxPoint x="1370" y="500" as="targetPoint" />
            <Array as="points">
              <mxPoint x="1020" y="500" />
            </Array>
          </mxGeometry>
        </mxCell>
        <mxCell id="6wJppxcaaT_Gy_mOasJ4-50" value="" style="verticalLabelPosition=bottom;verticalAlign=top;html=1;shape=mxgraph.basic.acute_triangle;dx=0.48;direction=south;" vertex="1" parent="1">
          <mxGeometry x="1377.5" y="480" width="22.5" height="32.5" as="geometry" />
        </mxCell>
        <mxCell id="6wJppxcaaT_Gy_mOasJ4-51" value="Doctor" style="rounded=0;whiteSpace=wrap;html=1;" vertex="1" parent="1">
          <mxGeometry x="1180" y="1180" width="160" height="40" as="geometry" />
        </mxCell>
        <mxCell id="6wJppxcaaT_Gy_mOasJ4-52" value="-Doctor_ID : String&lt;br&gt;-name : string&lt;br&gt;- specialization : string" style="rounded=0;whiteSpace=wrap;html=1;align=left;" vertex="1" parent="1">
          <mxGeometry x="1180" y="1220" width="160" height="80" as="geometry" />
        </mxCell>
        <mxCell id="6wJppxcaaT_Gy_mOasJ4-53" value="+ShowDocDetails ()" style="rounded=0;whiteSpace=wrap;html=1;align=left;" vertex="1" parent="1">
          <mxGeometry x="1180" y="1300" width="160" height="40" as="geometry" />
        </mxCell>
        <mxCell id="6wJppxcaaT_Gy_mOasJ4-55" value="" style="endArrow=none;html=1;rounded=0;entryX=0.25;entryY=1;entryDx=0;entryDy=0;exitX=0;exitY=0.5;exitDx=0;exitDy=0;" edge="1" parent="1" source="6wJppxcaaT_Gy_mOasJ4-52" target="6wJppxcaaT_Gy_mOasJ4-44">
          <mxGeometry width="50" height="50" relative="1" as="geometry">
            <mxPoint x="970" y="1310" as="sourcePoint" />
            <mxPoint x="1010" y="760" as="targetPoint" />
            <Array as="points">
              <mxPoint x="980" y="1260" />
            </Array>
          </mxGeometry>
        </mxCell>
        <mxCell id="6wJppxcaaT_Gy_mOasJ4-56" value="" style="endArrow=diamondThin;endFill=1;endSize=24;html=1;rounded=0;exitX=1;exitY=0.5;exitDx=0;exitDy=0;" edge="1" parent="1" source="6wJppxcaaT_Gy_mOasJ4-52">
          <mxGeometry width="160" relative="1" as="geometry">
            <mxPoint x="1780" y="1290" as="sourcePoint" />
            <mxPoint x="1490" y="1081" as="targetPoint" />
            <Array as="points">
              <mxPoint x="1490" y="1260" />
            </Array>
          </mxGeometry>
        </mxCell>
        <mxCell id="6wJppxcaaT_Gy_mOasJ4-57" value="Manager" style="rounded=0;whiteSpace=wrap;html=1;" vertex="1" parent="1">
          <mxGeometry x="1670" y="650" width="160" height="40" as="geometry" />
        </mxCell>
        <mxCell id="6wJppxcaaT_Gy_mOasJ4-58" value="-Manager_ID : String" style="rounded=0;whiteSpace=wrap;html=1;align=left;" vertex="1" parent="1">
          <mxGeometry x="1670" y="690" width="160" height="40" as="geometry" />
        </mxCell>
        <mxCell id="6wJppxcaaT_Gy_mOasJ4-59" value="+genarateReports ()" style="rounded=0;whiteSpace=wrap;html=1;align=left;" vertex="1" parent="1">
          <mxGeometry x="1670" y="730" width="160" height="40" as="geometry" />
        </mxCell>
        <mxCell id="6wJppxcaaT_Gy_mOasJ4-60" value="" style="group" vertex="1" connectable="0" parent="1">
          <mxGeometry x="1475" y="650" width="30" height="20" as="geometry" />
        </mxCell>
        <mxCell id="6wJppxcaaT_Gy_mOasJ4-62" value="" style="endArrow=none;html=1;rounded=0;entryX=0.5;entryY=1;entryDx=0;entryDy=0;entryPerimeter=0;" edge="1" parent="1" target="6wJppxcaaT_Gy_mOasJ4-64">
          <mxGeometry width="50" height="50" relative="1" as="geometry">
            <mxPoint x="1760" y="650" as="sourcePoint" />
            <mxPoint x="1590" y="520" as="targetPoint" />
            <Array as="points">
              <mxPoint x="1760" y="523" />
            </Array>
          </mxGeometry>
        </mxCell>
        <mxCell id="6wJppxcaaT_Gy_mOasJ4-64" value="" style="verticalLabelPosition=bottom;verticalAlign=top;html=1;shape=mxgraph.basic.acute_triangle;dx=0.51;direction=north;" vertex="1" parent="1">
          <mxGeometry x="1560" y="510" width="15" height="25" as="geometry" />
        </mxCell>
        <mxCell id="6wJppxcaaT_Gy_mOasJ4-66" value="" style="endArrow=diamondThin;endFill=1;endSize=24;html=1;rounded=0;entryX=0.5;entryY=1;entryDx=0;entryDy=0;" edge="1" parent="1" target="6wJppxcaaT_Gy_mOasJ4-39">
          <mxGeometry width="160" relative="1" as="geometry">
            <mxPoint x="950" y="720" as="sourcePoint" />
            <mxPoint x="1890" y="1390" as="targetPoint" />
            <Array as="points">
              <mxPoint x="950" y="1400" />
              <mxPoint x="1810" y="1400" />
            </Array>
          </mxGeometry>
        </mxCell>
        <mxCell id="6wJppxcaaT_Gy_mOasJ4-67" value="&lt;font style=&quot;font-size: 14px;&quot;&gt;0 *&lt;/font&gt;" style="text;align=center;fontStyle=1;verticalAlign=middle;spacingLeft=3;spacingRight=3;strokeColor=none;rotatable=0;points=[[0,0.5],[1,0.5]];portConstraint=eastwest;html=1;" vertex="1" parent="1">
          <mxGeometry x="1240" y="950" width="40" height="20" as="geometry" />
        </mxCell>
        <mxCell id="6wJppxcaaT_Gy_mOasJ4-69" value="&lt;font style=&quot;font-size: 14px;&quot;&gt;1&lt;/font&gt;" style="text;align=center;fontStyle=1;verticalAlign=middle;spacingLeft=3;spacingRight=3;strokeColor=none;rotatable=0;points=[[0,0.5],[1,0.5]];portConstraint=eastwest;html=1;" vertex="1" parent="1">
          <mxGeometry x="1337.5" y="947" width="40" height="26" as="geometry" />
        </mxCell>
        <mxCell id="6wJppxcaaT_Gy_mOasJ4-70" value="&lt;font style=&quot;font-size: 14px;&quot;&gt;1 *&lt;/font&gt;" style="text;align=center;fontStyle=1;verticalAlign=middle;spacingLeft=3;spacingRight=3;strokeColor=none;rotatable=0;points=[[0,0.5],[1,0.5]];portConstraint=eastwest;html=1;" vertex="1" parent="1">
          <mxGeometry x="1040" y="947" width="40" height="20" as="geometry" />
        </mxCell>
        <mxCell id="6wJppxcaaT_Gy_mOasJ4-71" value="&lt;font style=&quot;font-size: 14px;&quot;&gt;1&lt;/font&gt;" style="text;align=center;fontStyle=1;verticalAlign=middle;spacingLeft=3;spacingRight=3;strokeColor=none;rotatable=0;points=[[0,0.5],[1,0.5]];portConstraint=eastwest;html=1;" vertex="1" parent="1">
          <mxGeometry x="1010" y="720" width="40" height="20" as="geometry" />
        </mxCell>
        <mxCell id="6wJppxcaaT_Gy_mOasJ4-72" value="&lt;font style=&quot;font-size: 14px;&quot;&gt;1&lt;/font&gt;" style="text;align=center;fontStyle=1;verticalAlign=middle;spacingLeft=3;spacingRight=3;strokeColor=none;rotatable=0;points=[[0,0.5],[1,0.5]];portConstraint=eastwest;html=1;" vertex="1" parent="1">
          <mxGeometry x="950" y="720" width="40" height="20" as="geometry" />
        </mxCell>
        <mxCell id="6wJppxcaaT_Gy_mOasJ4-73" value="&lt;font style=&quot;font-size: 14px;&quot;&gt;1 *&lt;/font&gt;" style="text;align=center;fontStyle=1;verticalAlign=middle;spacingLeft=3;spacingRight=3;strokeColor=none;rotatable=0;points=[[0,0.5],[1,0.5]];portConstraint=eastwest;html=1;" vertex="1" parent="1">
          <mxGeometry x="1140" y="1240" width="40" height="20" as="geometry" />
        </mxCell>
        <mxCell id="6wJppxcaaT_Gy_mOasJ4-74" value="&lt;font style=&quot;font-size: 14px;&quot;&gt;1&lt;/font&gt;" style="text;align=center;fontStyle=1;verticalAlign=middle;spacingLeft=3;spacingRight=3;strokeColor=none;rotatable=0;points=[[0,0.5],[1,0.5]];portConstraint=eastwest;html=1;" vertex="1" parent="1">
          <mxGeometry x="920" y="720" width="40" height="20" as="geometry" />
        </mxCell>
        <mxCell id="6wJppxcaaT_Gy_mOasJ4-75" value="&lt;font style=&quot;font-size: 14px;&quot;&gt;1 *&lt;/font&gt;" style="text;align=center;fontStyle=1;verticalAlign=middle;spacingLeft=3;spacingRight=3;strokeColor=none;rotatable=0;points=[[0,0.5],[1,0.5]];portConstraint=eastwest;html=1;" vertex="1" parent="1">
          <mxGeometry x="1810" y="1050" width="40" height="20" as="geometry" />
        </mxCell>
        <mxCell id="6wJppxcaaT_Gy_mOasJ4-76" value="&lt;font style=&quot;font-size: 14px;&quot;&gt;0 *&lt;/font&gt;" style="text;align=center;fontStyle=1;verticalAlign=middle;spacingLeft=3;spacingRight=3;strokeColor=none;rotatable=0;points=[[0,0.5],[1,0.5]];portConstraint=eastwest;html=1;" vertex="1" parent="1">
          <mxGeometry x="1337.5" y="1240" width="40" height="20" as="geometry" />
        </mxCell>
        <mxCell id="6wJppxcaaT_Gy_mOasJ4-77" value="&lt;font style=&quot;font-size: 14px;&quot;&gt;1&lt;/font&gt;" style="text;align=center;fontStyle=1;verticalAlign=middle;spacingLeft=3;spacingRight=3;strokeColor=none;rotatable=0;points=[[0,0.5],[1,0.5]];portConstraint=eastwest;html=1;" vertex="1" parent="1">
          <mxGeometry x="1455" y="1100" width="40" height="26" as="geometry" />
        </mxCell>
        <mxCell id="6wJppxcaaT_Gy_mOasJ4-78" value="&lt;font style=&quot;font-size: 14px;&quot;&gt;0 *&lt;/font&gt;" style="text;align=center;fontStyle=1;verticalAlign=middle;spacingLeft=3;spacingRight=3;strokeColor=none;rotatable=0;points=[[0,0.5],[1,0.5]];portConstraint=eastwest;html=1;" vertex="1" parent="1">
          <mxGeometry x="1690" y="930" width="40" height="20" as="geometry" />
        </mxCell>
        <mxCell id="6wJppxcaaT_Gy_mOasJ4-79" value="&lt;font style=&quot;font-size: 14px;&quot;&gt;1 *&lt;/font&gt;" style="text;align=center;fontStyle=1;verticalAlign=middle;spacingLeft=3;spacingRight=3;strokeColor=none;rotatable=0;points=[[0,0.5],[1,0.5]];portConstraint=eastwest;html=1;" vertex="1" parent="1">
          <mxGeometry x="1575" y="930" width="40" height="20" as="geometry" />
        </mxCell>
      </root>
    </mxGraphModel>
  </diagram>
</mxfile>
